# xmcd CD database file
#
# Track frame offsets:
#	150
#	11825
#	25972
#	33582
#	46382
#	56945
#	67395
#	81147
#	95185
#	105352
#	119022
#	132445
#	147817
#	157495
#	167415
#	177825
#	189007
#	201085
#
# Disc length: 2863 seconds
#
# Revision: 0
# Processed by: cddbd v1.5.1PL0 Copyright (c) Steve Scherf et al.
# Submitted via: CDex 1.60beta1
#
DISCID=0a0b2d12
DTITLE=Slim Harpo - Raining In My Heart
DYEAR=0
DGENRE=Blues
TTITLE0=Rainin' In My Heart
TTITLE1=Blues Hangover
TTITLE2=Bobby-Sox Baby
TTITLE3=I Got Love If You Want It
TTITLE4=Snoopin' Around
TTITLE5=Buzz Me Baby
TTITLE6=I'm A King Bee
TTITLE7=What A Dream
TTITLE8=Don't Start Cryin' Now
TTITLE9=Moody Blues
TTITLE10=My Home Is A Prison
TTITLE11=Dream Girl
TTITLE12=Wonderin' And Worryin'
TTITLE13=Strange Love
TTITLE14=You'll Be Sorry One Day
TTITLE15=One More Day
TTITLE16=Late Last Night
TTITLE17=Still Rainin' In My Heart
EXTD=YEAR: 0
EXTT0=
EXTT1=
EXTT2=
EXTT3=
EXTT4=
EXTT5=
EXTT6=
EXTT7=
EXTT8=
EXTT9=
EXTT10=
EXTT11=
EXTT12=
EXTT13=
EXTT14=
EXTT15=
EXTT16=
EXTT17=
PLAYORDER=
